<svg width="16" height="11" viewBox="0 0 16 11" fill="none" xmlns="http://www.w3.org/2000/svg">
<path d="M14.7338 0.886948H1.26619C0.915382 0.886948 0.61665 1.01028 0.36999 1.25694C0.12333 1.5036 0 1.80233 0 2.15313V9.73381C0 10.0846 0.12333 10.3834 0.36999 10.63C0.61665 10.8767 0.915382 11 1.26619 11H14.7338C15.0846 11 15.3834 10.8767 15.63 10.63C15.8767 10.3834 16 10.0846 16 9.73381V2.15313C16 1.80233 15.8767 1.5036 15.63 1.25694C15.3834 1.01028 15.0846 0.886948 14.7338 0.886948ZM14.7338 1.74203C14.7448 1.74203 14.7557 1.74203 14.7667 1.74203C14.7777 1.74203 14.7886 1.74203 14.7996 1.74203L8.46865 5.96814C8.34806 6.05584 8.19185 6.09969 8 6.09969C7.80815 6.09969 7.65194 6.05584 7.53135 5.96814L1.18397 1.74203C1.19493 1.74203 1.20863 1.74203 1.22508 1.74203C1.24152 1.74203 1.25522 1.74203 1.26619 1.74203H14.7338ZM14.7338 10.1614H1.26619C1.1456 10.1614 1.04419 10.1202 0.961973 10.038C0.879753 9.95581 0.838643 9.8544 0.838643 9.73381V2.5149L7.07091 6.67523C7.20247 6.76293 7.34772 6.82871 7.50668 6.87256C7.66564 6.91641 7.82734 6.93833 7.99178 6.93833C8.16718 6.93833 8.33436 6.91641 8.49332 6.87256C8.65228 6.82871 8.79753 6.76293 8.92909 6.67523L15.1614 2.5149V9.73381C15.1614 9.8544 15.1202 9.95581 15.038 10.038C14.9558 10.1202 14.8544 10.1614 14.7338 10.1614Z" fill="black"/>
</svg>
