<svg width="145" height="46" viewBox="0 0 145 46" fill="none" xmlns="http://www.w3.org/2000/svg">
<g clip-path="url(#clip0_739_1736)">
<rect width="143.53" height="45" transform="translate(0.530273 0.676392)" fill="#3B5998"/>
<rect width="98.53" height="45" transform="translate(45.5303 0.676392)" fill="url(#paint0_linear_739_1736)"/>
<path d="M68.4121 20.5997H64.7061V23.1779H68.1118V25.0968H64.7061V29.1764H62.3403V18.6735H68.4121V20.5997ZM75.707 29.1764H73.5171V28.0997H73.4878C72.9849 28.9396 72.2402 29.3595 71.2539 29.3595C70.5264 29.3595 69.9526 29.1544 69.5327 28.7443C69.1177 28.3292 68.9102 27.7775 68.9102 27.089C68.9102 25.6339 69.772 24.7941 71.4956 24.5695L73.5317 24.2985C73.5317 23.4781 73.0874 23.068 72.1987 23.068C71.3052 23.068 70.4556 23.3341 69.6499 23.8663V22.1232C69.9722 21.9572 70.4116 21.8107 70.9683 21.6837C71.5298 21.5568 72.04 21.4933 72.499 21.4933C74.6377 21.4933 75.707 22.5602 75.707 24.694V29.1764ZM73.5317 26.1295V25.6241L72.1694 25.7999C71.4175 25.8976 71.0415 26.2369 71.0415 26.818C71.0415 27.0817 71.1318 27.299 71.3125 27.4698C71.498 27.6359 71.7471 27.7189 72.0596 27.7189C72.4941 27.7189 72.8481 27.5699 73.1216 27.2721C73.395 26.9694 73.5317 26.5885 73.5317 26.1295ZM83.2217 28.9054C82.6992 29.2081 81.9448 29.3595 80.9585 29.3595C79.8062 29.3595 78.8735 29.0104 78.1606 28.3121C77.4478 27.6139 77.0913 26.713 77.0913 25.6095C77.0913 24.3351 77.4722 23.3317 78.2339 22.5992C79.0005 21.8619 80.0234 21.4933 81.3027 21.4933C82.1865 21.4933 82.8262 21.6105 83.2217 21.8448V23.8077C82.7383 23.4464 82.1987 23.2657 81.603 23.2657C80.939 23.2657 80.4116 23.4611 80.021 23.8517C79.6353 24.2374 79.4424 24.7721 79.4424 25.4557C79.4424 26.1198 79.6279 26.6422 79.999 27.0231C80.3701 27.399 80.8804 27.587 81.5298 27.587C82.106 27.587 82.6699 27.4064 83.2217 27.045V28.9054ZM91.4834 26.0856H86.5908C86.6689 27.1744 87.355 27.7189 88.6489 27.7189C89.4741 27.7189 90.1992 27.5236 90.8242 27.1329V28.8029C90.1309 29.174 89.23 29.3595 88.1216 29.3595C86.9106 29.3595 85.9707 29.025 85.3018 28.3561C84.6328 27.6823 84.2983 26.7448 84.2983 25.5436C84.2983 24.2985 84.6597 23.3121 85.3823 22.5846C86.105 21.8571 86.9937 21.4933 88.0483 21.4933C89.1421 21.4933 89.9868 21.818 90.5825 22.4674C91.1831 23.1168 91.4834 23.9982 91.4834 25.1115V26.0856ZM89.3374 24.6647C89.3374 23.5905 88.9028 23.0533 88.0337 23.0533C87.6626 23.0533 87.3403 23.2072 87.0669 23.5148C86.7983 23.8224 86.6348 24.2057 86.5762 24.6647H89.3374ZM95.2041 28.3048H95.1748V29.1764H92.8604V18.0729H95.1748V22.8043H95.2041C95.7754 21.9303 96.5884 21.4933 97.6431 21.4933C98.6099 21.4933 99.3545 21.8253 99.877 22.4894C100.399 23.1534 100.661 24.0616 100.661 25.214C100.661 26.464 100.355 27.4674 99.7451 28.2242C99.1348 28.9811 98.3193 29.3595 97.2988 29.3595C96.376 29.3595 95.6777 29.0079 95.2041 28.3048ZM95.1382 25.1407V25.9098C95.1382 26.3932 95.2773 26.7936 95.5557 27.111C95.834 27.4283 96.1904 27.587 96.625 27.587C97.1523 27.587 97.5601 27.3844 97.8481 26.9791C98.1411 26.569 98.2876 25.9904 98.2876 25.2433C98.2876 24.6232 98.1533 24.1398 97.8848 23.7931C97.6211 23.4415 97.2427 23.2657 96.7495 23.2657C96.2856 23.2657 95.8999 23.4391 95.5923 23.7858C95.2896 24.1324 95.1382 24.5841 95.1382 25.1407ZM105.736 29.3595C104.486 29.3595 103.502 29.0104 102.785 28.3121C102.072 27.609 101.715 26.6569 101.715 25.4557C101.715 24.2155 102.086 23.2462 102.829 22.548C103.571 21.8448 104.574 21.4933 105.839 21.4933C107.084 21.4933 108.061 21.8448 108.769 22.548C109.477 23.2462 109.831 24.1715 109.831 25.3239C109.831 26.569 109.464 27.5529 108.732 28.2755C108.004 28.9982 107.006 29.3595 105.736 29.3595ZM105.795 23.2657C105.248 23.2657 104.823 23.4537 104.521 23.8297C104.218 24.2057 104.066 24.7379 104.066 25.4264C104.066 26.8668 104.647 27.587 105.81 27.587C106.918 27.587 107.472 26.8473 107.472 25.3678C107.472 23.9664 106.913 23.2657 105.795 23.2657ZM114.906 29.3595C113.656 29.3595 112.672 29.0104 111.955 28.3121C111.242 27.609 110.885 26.6569 110.885 25.4557C110.885 24.2155 111.256 23.2462 111.999 22.548C112.741 21.8448 113.744 21.4933 115.009 21.4933C116.254 21.4933 117.23 21.8448 117.938 22.548C118.646 23.2462 119 24.1715 119 25.3239C119 26.569 118.634 27.5529 117.902 28.2755C117.174 28.9982 116.176 29.3595 114.906 29.3595ZM114.965 23.2657C114.418 23.2657 113.993 23.4537 113.69 23.8297C113.388 24.2057 113.236 24.7379 113.236 25.4264C113.236 26.8668 113.817 27.587 114.979 27.587C116.088 27.587 116.642 26.8473 116.642 25.3678C116.642 23.9664 116.083 23.2657 114.965 23.2657ZM128.017 29.1764H125.241L122.846 25.4557H122.816V29.1764H120.502V18.0729H122.816V25.1407H122.846L125.08 21.6764H127.826L125.138 25.1993L128.017 29.1764Z" fill="white"/>
<path d="M31.2646 23.3014C31.2646 27.4186 28.2432 30.8385 24.292 31.4362V25.692H26.2178L26.583 23.3014H24.292V21.774C24.292 21.11 24.624 20.4791 25.6533 20.4791H26.6826V18.4537C26.6826 18.4537 25.7529 18.2877 24.8232 18.2877C22.9639 18.2877 21.7354 19.4498 21.7354 21.5084V23.3014H19.6436V25.692H21.7354V31.4362C17.7842 30.8385 14.7959 27.4186 14.7959 23.3014C14.7959 18.7526 18.4814 15.067 23.0303 15.067C27.5791 15.067 31.2646 18.7526 31.2646 23.3014Z" fill="white"/>
</g>
<defs>
<linearGradient id="paint0_linear_739_1736" x1="0" y1="22.5" x2="98.53" y2="22.5" gradientUnits="userSpaceOnUse">
<stop stop-opacity="0.12"/>
<stop offset="1" stop-opacity="0"/>
</linearGradient>
<clipPath id="clip0_739_1736">
<rect width="143.53" height="45" fill="white" transform="translate(0.530273 0.676392)"/>
</clipPath>
</defs>
</svg>
