<svg width="104" height="89" viewBox="0 0 104 89" fill="none" xmlns="http://www.w3.org/2000/svg">
<path d="M2 25.0769H102" stroke="#374BB8" stroke-width="3" stroke-miterlimit="10" stroke-linecap="round" stroke-linejoin="round"/>
<path d="M17.3846 17.3846C16.2308 17.3846 15.4615 17 14.6923 16.2308C13.9231 15.4616 13.5385 14.6923 13.5385 13.5385C13.5385 12.3846 13.9231 11.6154 14.6923 10.8462L15.0769 10.4616C15.4615 10.4616 15.4615 10.0769 15.8461 10.0769C16.2308 9.69232 16.2308 9.69232 16.6154 9.69232C17 9.69232 17.7692 9.69232 18.1538 9.69232C18.5385 9.69232 18.5385 9.69232 18.9231 10.0769C19.3077 10.0769 19.3077 10.4616 19.6923 10.4616L20.0769 10.8462C20.4615 11.2308 20.8461 11.6154 20.8461 12C21.2308 12.3846 21.2308 13.1539 21.2308 13.5385C21.2308 13.9231 21.2308 14.6923 20.8461 15.0769C20.8461 15.4616 20.4615 15.8462 20.0769 16.2308C19.3077 17 18.5385 17.3846 17.3846 17.3846Z" fill="#374BB8"/>
<path d="M28.9231 17.3847C27.7692 17.3847 27 17.0001 26.2308 16.2309C25.4615 15.4616 25.0769 14.6924 25.0769 13.5386C25.0769 13.1539 25.0769 12.3847 25.4615 12.0001C25.8461 11.6155 25.8461 11.2309 26.2308 10.8462C26.6154 10.4616 27 10.077 27.3846 10.077C28.9231 9.30779 30.4615 9.6924 31.6154 10.8462C32 11.2309 32.3846 11.6155 32.3846 12.0001C32.7692 12.3847 32.7692 13.1539 32.7692 13.5386C32.7692 14.6924 32.3846 15.4616 31.6154 16.2309C30.8461 17.0001 30.0769 17.3847 28.9231 17.3847Z" fill="#374BB8"/>
<path d="M40.4615 17.3846C40.0769 17.3846 39.3077 17.3846 38.9231 17C38.5384 16.6154 38.1538 16.6154 37.7692 16.2308C37.3846 15.8462 37 15.4616 37 15.0769C36.6154 14.6923 36.6154 13.9231 36.6154 13.5385C36.6154 13.1539 36.6154 12.3846 37 12C37.3846 11.6154 37.3846 11.2308 37.7692 10.8462C39.3077 9.30771 41.6154 9.30771 43.1538 10.8462C43.5384 11.2308 43.923 11.6154 43.923 12C44.3077 12.3846 44.3077 13.1539 44.3077 13.5385C44.3077 13.9231 44.3077 14.6923 43.923 15.0769C43.5384 15.4616 43.5384 15.8462 43.1538 16.2308C42.3846 17 41.6154 17.3846 40.4615 17.3846Z" fill="#374BB8"/>
<path d="M94.3077 2H9.69231C5.46154 2 2 5.46154 2 9.69231V78.9231C2 83.1538 5.46154 86.6154 9.69231 86.6154H94.3077C98.5385 86.6154 102 83.1538 102 78.9231V9.69231C102 5.46154 98.5385 2 94.3077 2Z" stroke="#374BB8" stroke-width="3" stroke-miterlimit="10" stroke-linecap="round" stroke-linejoin="round"/>
<path d="M32.7692 44.3077L21.2308 55.8461L32.7692 67.3846" stroke="#374BB8" stroke-width="3" stroke-miterlimit="10" stroke-linecap="round" stroke-linejoin="round"/>
<path d="M71.2308 44.3077L82.7692 55.8461L71.2308 67.3846" stroke="#374BB8" stroke-width="3" stroke-miterlimit="10" stroke-linecap="round" stroke-linejoin="round"/>
<path d="M59.6923 40.4615L44.3077 71.2308" stroke="#374BB8" stroke-width="3" stroke-miterlimit="10" stroke-linecap="round" stroke-linejoin="round"/>
</svg>
