<svg width="100" height="100" viewBox="0 0 100 100" fill="none" xmlns="http://www.w3.org/2000/svg">
<g clip-path="url(#clip0_760_1695)">
<path d="M43.6719 64.6094C32.1289 64.6094 22.7149 55.2148 22.7149 43.6719C22.7149 32.1289 32.1094 22.7148 43.6719 22.7148C55.2539 22.7148 64.6094 32.0898 64.6094 43.6719C64.6094 55.2148 55.2149 64.6094 43.6719 64.6094ZM43.6719 24.2773C32.9883 24.2773 24.2774 32.9688 24.2774 43.6719C24.2774 54.3555 32.9688 63.0469 43.6719 63.0469C54.3555 63.0469 63.0469 54.3555 63.0469 43.6719C63.0469 38.4961 61.0352 33.6328 57.3633 29.9609C53.6914 26.2891 48.8477 24.2773 43.6719 24.2773Z" fill="#374BB8"/>
<path d="M99.082 87.5586L75.7812 64.2774C75.4297 63.9258 75.0391 63.6719 74.6094 63.4961C76.9922 59.7656 78.6914 55.6836 79.6094 51.3281H83.8672C85.7812 51.3281 87.3438 49.7852 87.3438 47.8711V39.4922C87.3438 37.5781 85.7812 36.0156 83.8672 36.0156H79.6094C78.6719 31.6016 76.9531 27.4414 74.4922 23.6523L77.5 20.6445C78.8672 19.2773 78.8477 17.0898 77.5 15.7227L71.582 9.84375C70.2539 8.49609 68.0469 8.47656 66.6797 9.84375L63.6719 12.8516C59.8633 10.3711 55.7227 8.65234 51.3281 7.73438V3.45703C51.3086 1.5625 49.7656 0 47.8516 0H39.4922C37.5781 0 36.0352 1.5625 36.0352 3.45703V7.73438C31.6211 8.65234 27.4609 10.3906 23.6719 12.8516L20.6641 9.84375C19.3164 8.49609 17.1094 8.49609 15.7617 9.84375L9.82422 15.7422C8.4375 17.1484 8.49609 19.3359 9.82422 20.6445L12.832 23.6523C10.3711 27.4414 8.65234 31.582 7.71484 36.0156H3.45703C1.54297 36.0156 0 37.5781 0 39.4727V47.8516C0 49.7656 1.54297 51.3086 3.45703 51.3281H7.73437C8.65234 55.7227 10.3711 59.8828 12.8516 63.6914L9.84375 66.6992C8.47656 68.0274 8.47656 70.2344 9.82422 71.6016L15.7422 77.5195C17.0703 78.8672 19.2773 78.8477 20.625 77.5195L23.6328 74.5117C27.4609 76.9922 31.6016 78.7109 36.0156 79.6484V83.9063C36.0156 85.7813 37.5195 87.3633 39.4531 87.3633C39.4531 87.3633 39.4531 87.3633 39.4727 87.3633H47.832C49.7461 87.3633 51.3086 85.8008 51.3086 83.9063V79.6484C55.6445 78.7305 59.707 77.0508 63.457 74.6484C63.6523 75.0781 63.9258 75.4883 64.2578 75.8398L87.5391 99.1211C88.7305 100.332 90.7422 100.371 91.9922 99.1211L99.0625 92.0508C100.312 90.7813 100.312 88.7891 99.082 87.5586ZM63.1641 72.9492C59.2578 75.5664 54.9609 77.3242 50.3906 78.2031C50.0195 78.2813 49.7656 78.5938 49.7656 78.9844V83.8867C49.7656 84.9219 48.9062 85.7813 47.8516 85.7813H39.4922C39.4922 85.7813 39.4922 85.7813 39.4727 85.7813C38.457 85.7813 37.5977 84.9609 37.5977 83.8867V78.9844C37.5977 78.6133 37.3242 78.2813 36.9531 78.2031C32.0898 77.2852 27.8516 75.4102 23.9062 72.793C23.5938 72.6367 23.2422 72.6953 23.0078 72.9297L19.5312 76.3867C18.7891 77.1289 17.5781 77.1289 16.8359 76.4063L10.9375 70.4688C10.1953 69.7266 10.1953 68.5156 10.9375 67.7734L14.3945 64.3164C14.668 64.043 14.707 63.6328 14.4922 63.3398C11.8359 59.375 10.0391 55.0195 9.14062 50.3906C9.0625 50.0195 8.75 49.7656 8.37891 49.7656H3.45703C2.40234 49.7656 1.5625 48.9063 1.5625 47.8516V39.4727C1.5625 38.418 2.42188 37.5781 3.45703 37.5781H8.35938C8.73047 37.5781 9.0625 37.3047 9.12109 36.9531C10.0195 32.3047 11.8164 27.9297 14.4727 24.0039C14.6875 23.6914 14.6484 23.2813 14.375 23.0078L10.9375 19.5313C10.1758 18.7891 10.1953 17.5781 10.9375 16.8555L16.8359 10.9375C17.5781 10.1953 18.7891 10.1953 19.5312 10.9375L22.9883 14.4141C23.2422 14.668 23.6523 14.7266 24.0039 14.4922C27.9492 11.8359 32.3047 10.0391 36.9336 9.14063C37.3047 9.0625 37.5781 8.75 37.5781 8.37891V3.45703C37.5781 2.42188 38.418 1.5625 39.4727 1.5625H47.8516C48.9062 1.5625 49.7656 2.42188 49.7656 3.45703V8.35938C49.7656 8.73047 50.0391 9.0625 50.3906 9.12109C55.0391 10.0195 59.375 11.8164 63.3398 14.4727C63.6523 14.6875 64.0625 14.6484 64.3164 14.375L67.793 10.9375C68.5156 10.2148 69.707 10.1758 70.4688 10.9375L76.3867 16.8359C77.1289 17.5781 77.1484 18.7891 76.3867 19.5313L72.9102 22.9883C72.6758 23.2227 72.6172 23.5547 72.7539 23.8477C72.793 23.9258 72.832 24.0039 72.8711 24.0625C75.5078 27.9883 77.2852 32.3242 78.1836 36.9531C78.2617 37.3242 78.5742 37.5781 78.9648 37.5781H83.8672C84.9219 37.5781 85.7812 38.4375 85.7812 39.4922V47.8516C85.7812 48.8867 84.9219 49.7461 83.8672 49.7461H78.9844C78.6133 49.7461 78.2812 50.0195 78.2227 50.3711C77.3242 54.9609 75.5664 59.2773 72.9688 63.1445C72.3438 63.1641 71.7383 63.3398 71.1914 63.6523L66.9531 59.4141C70.0195 54.9219 71.7969 49.4922 71.7969 43.6523C71.7969 28.1445 59.1797 15.5273 43.6719 15.5273C28.1641 15.5273 15.5469 28.1445 15.5469 43.6523C15.5469 59.1602 28.1641 71.7774 43.6719 71.7774C49.5117 71.7774 54.9414 69.9805 59.4336 66.9336L63.6719 71.1719C63.3594 71.6992 63.1836 72.3047 63.1641 72.9492ZM43.6719 70.2149C29.0234 70.2149 17.1094 58.3008 17.1094 43.6523C17.1094 29.0039 29.0234 17.0898 43.6719 17.0898C58.3203 17.0898 70.2344 29.0039 70.2344 43.6523C70.2344 58.3203 58.3203 70.2149 43.6719 70.2149ZM60.7422 66.0156C62.7344 64.4922 64.5117 62.7344 66.0352 60.7227L69.9805 64.668L64.6875 69.9609L60.7422 66.0156ZM97.9688 90.918L90.8984 97.9883C90.2734 98.6133 89.2773 98.6133 88.6523 97.9883L65.3906 74.6875C64.5117 73.8281 64.4727 72.3828 65.3906 71.4649L71.4844 65.3711C72.3828 64.4922 73.7891 64.4727 74.6875 65.3711L97.9688 88.6719C98.5938 89.2774 98.5938 90.293 97.9688 90.918Z" fill="#374BB8"/>
</g>
<defs>
<clipPath id="clip0_760_1695">
<rect width="100" height="100" fill="white"/>
</clipPath>
</defs>
</svg>
