<svg width="103" height="100" viewBox="0 0 103 100" fill="none" xmlns="http://www.w3.org/2000/svg">
<path d="M36.1904 46.6666H41.9047V52.3809H43.8095V35.2381V33.3333H36.1904V35.2381H41.9047V44.7619H36.1904V35.2381H34.2857V52.3809H36.1904V46.6666Z" fill="#374BB8"/>
<path d="M49.5237 46.6666H57.1428V35.2381H55.238V44.7619H49.5237V35.2381H55.238V33.3333H47.619V52.3809H49.5237V46.6666Z" fill="#374BB8"/>
<path d="M66.6667 50.4762H64.7619V35.2381H66.6667V33.3333H60.9524V35.2381H62.8572V50.4762H60.9524V52.3809H66.6667V50.4762Z" fill="#374BB8"/>
<path d="M26.6667 7.48381V14.7429L36.1905 22.3619V27.619H28.5714V33.3333H19.4991L14.4114 27.1029C14.9219 26.4552 15.2381 25.6495 15.2381 24.7619C15.2381 22.659 13.5314 20.9524 11.4286 20.9524C9.32573 20.9524 7.61906 22.659 7.61906 24.7619C7.61906 26.8648 9.32573 28.5714 11.4286 28.5714C11.9524 28.5714 12.4534 28.4648 12.9067 28.2724L18.5962 35.2381H28.5714V39.0476H16.7486L13.3524 42.4438C12.7848 42.1086 12.1333 41.9048 11.4286 41.9048C9.32573 41.9048 7.61906 43.6114 7.61906 45.7143C7.61906 47.8171 9.32573 49.5238 11.4286 49.5238C13.5314 49.5238 15.2381 47.8171 15.2381 45.7143C15.2381 45.0095 15.0343 44.3581 14.6991 43.7905L17.5372 40.9524H28.5714V50.4762H16.7486L13.3524 53.8724C12.7848 53.5371 12.1333 53.3333 11.4286 53.3333C9.32573 53.3333 7.61906 55.04 7.61906 57.1429C7.61906 59.2457 9.32573 60.9524 11.4286 60.9524C13.5314 60.9524 15.2381 59.2457 15.2381 57.1429C15.2381 56.4381 15.0343 55.7867 14.6991 55.2191L17.5372 52.381H28.5714V58.0952H36.1905V60C34.5505 60.4248 33.3333 61.9029 33.3333 63.6743C33.3333 65.7771 35.04 67.4838 37.1429 67.4838C39.2457 67.4838 40.9524 65.7771 40.9524 63.6743C40.9524 61.9029 39.7353 60.4248 38.0953 60V58.0952H45.7143V60C44.0743 60.4248 42.8572 61.9029 42.8572 63.6743C42.8572 65.7771 44.5638 67.4838 46.6667 67.4838C48.7695 67.4838 50.4762 65.7771 50.4762 63.6743C50.4762 61.9029 49.2591 60.4248 47.6191 60V58.0952H55.2381V60C53.5981 60.4248 52.381 61.9029 52.381 63.6743C52.381 65.7771 54.0876 67.4838 56.1905 67.4838C58.2934 67.4838 60 65.7771 60 63.6743C60 61.9029 58.7829 60.4248 57.1429 60V58.0952H64.7619V60C63.1219 60.4248 61.9048 61.9029 61.9048 63.6743C61.9048 65.7771 63.6114 67.4838 65.7143 67.4838C67.8172 67.4838 69.5238 65.7771 69.5238 63.6743C69.5238 61.9029 68.3067 60.4248 66.6667 60V58.0952H74.2857V52.381H85.32L88.1581 55.2191C87.8229 55.7867 87.6191 56.4381 87.6191 57.1429C87.6191 59.2457 89.3257 60.9524 91.4286 60.9524C93.5314 60.9524 95.2381 59.2457 95.2381 57.1429C95.2381 55.04 93.5314 53.3333 91.4286 53.3333C90.7238 53.3333 90.0724 53.5371 89.5048 53.8724L86.1086 50.4762H74.2857V46.6667H86.101L88.9905 43.8552C89.6515 44.4133 90.4953 44.7619 91.4286 44.7619C93.5314 44.7619 95.2381 43.0552 95.2381 40.9524C95.2381 38.8495 93.5314 37.1429 91.4286 37.1429C89.3257 37.1429 87.6191 38.8495 87.6191 40.9524C87.6191 41.4229 87.7162 41.8686 87.8724 42.2857L85.3276 44.7619H74.2857V35.2381H84.261L89.9486 28.2724C90.4038 28.4648 90.9048 28.5714 91.4286 28.5714C93.5314 28.5714 95.2381 26.8648 95.2381 24.7619C95.2381 22.659 93.5314 20.9524 91.4286 20.9524C89.3257 20.9524 87.6191 22.659 87.6191 24.7619C87.6191 25.6495 87.9352 26.4552 88.4457 27.1029L83.3581 33.3333H74.2857V27.619H66.6667V22.3619L76.1905 14.7429V7.48381C77.8305 7.05905 79.0476 5.58095 79.0476 3.80952C79.0476 1.70667 77.341 0 75.2381 0C73.1353 0 71.4286 1.70667 71.4286 3.80952C71.4286 5.58095 72.6457 7.05905 74.2857 7.48381V13.8286L64.7619 21.4476V27.619H57.1429V18.56L66.6667 11.099V7.48381C68.3067 7.05905 69.5238 5.58095 69.5238 3.80952C69.5238 1.70667 67.8172 0 65.7143 0C63.6114 0 61.9048 1.70667 61.9048 3.80952C61.9048 5.58095 63.1219 7.05905 64.7619 7.48381V10.1714L55.2381 17.6324V27.619H47.6191V17.6305L38.0953 10.1714V7.48381C39.7353 7.05905 40.9524 5.58095 40.9524 3.80952C40.9524 1.70667 39.2457 0 37.1429 0C35.04 0 33.3333 1.70667 33.3333 3.80952C33.3333 5.58095 34.5505 7.05905 36.1905 7.48381V11.099L45.7143 18.56V27.619H38.0953V21.4476L28.5714 13.8286V7.48381C30.2114 7.05905 31.4286 5.58095 31.4286 3.80952C31.4286 1.70667 29.7219 0 27.6191 0C25.5162 0 23.8095 1.70667 23.8095 3.80952C23.8095 5.58095 25.0267 7.05905 26.6667 7.48381ZM11.4286 26.6667C10.3772 26.6667 9.52383 25.8133 9.52383 24.7619C9.52383 23.7105 10.3772 22.8571 11.4286 22.8571C12.48 22.8571 13.3334 23.7105 13.3334 24.7619C13.3334 25.8133 12.48 26.6667 11.4286 26.6667ZM11.4286 47.619C10.3772 47.619 9.52383 46.7657 9.52383 45.7143C9.52383 44.6629 10.3772 43.8095 11.4286 43.8095C12.48 43.8095 13.3334 44.6629 13.3334 45.7143C13.3334 46.7657 12.48 47.619 11.4286 47.619ZM11.4286 59.0476C10.3772 59.0476 9.52383 58.1943 9.52383 57.1429C9.52383 56.0914 10.3772 55.2381 11.4286 55.2381C12.48 55.2381 13.3334 56.0914 13.3334 57.1429C13.3334 58.1943 12.48 59.0476 11.4286 59.0476ZM91.4286 55.2381C92.48 55.2381 93.3334 56.0914 93.3334 57.1429C93.3334 58.1943 92.48 59.0476 91.4286 59.0476C90.3772 59.0476 89.5238 58.1943 89.5238 57.1429C89.5238 56.0914 90.3772 55.2381 91.4286 55.2381ZM91.4286 39.0476C92.48 39.0476 93.3334 39.901 93.3334 40.9524C93.3334 42.0038 92.48 42.8571 91.4286 42.8571C90.3772 42.8571 89.5238 42.0038 89.5238 40.9524C89.5238 39.901 90.3772 39.0476 91.4286 39.0476ZM91.4286 22.8571C92.48 22.8571 93.3334 23.7105 93.3334 24.7619C93.3334 25.8133 92.48 26.6667 91.4286 26.6667C90.3772 26.6667 89.5238 25.8133 89.5238 24.7619C89.5238 23.7105 90.3772 22.8571 91.4286 22.8571ZM73.3334 3.80952C73.3334 2.7581 74.1867 1.90476 75.2381 1.90476C76.2895 1.90476 77.1429 2.7581 77.1429 3.80952C77.1429 4.86095 76.2895 5.71429 75.2381 5.71429C74.1867 5.71429 73.3334 4.86095 73.3334 3.80952ZM63.8095 3.80952C63.8095 2.7581 64.6629 1.90476 65.7143 1.90476C66.7657 1.90476 67.6191 2.7581 67.6191 3.80952C67.6191 4.86095 66.7657 5.71429 65.7143 5.71429C64.6629 5.71429 63.8095 4.86095 63.8095 3.80952ZM35.2381 3.80952C35.2381 2.7581 36.0914 1.90476 37.1429 1.90476C38.1943 1.90476 39.0476 2.7581 39.0476 3.80952C39.0476 4.86095 38.1943 5.71429 37.1429 5.71429C36.0914 5.71429 35.2381 4.86095 35.2381 3.80952ZM39.0476 63.6743C39.0476 64.7257 38.1943 65.579 37.1429 65.579C36.0914 65.579 35.2381 64.7257 35.2381 63.6743C35.2381 62.6229 36.0914 61.7695 37.1429 61.7695C38.1943 61.7695 39.0476 62.6229 39.0476 63.6743ZM48.5714 63.6743C48.5714 64.7257 47.7181 65.579 46.6667 65.579C45.6153 65.579 44.7619 64.7257 44.7619 63.6743C44.7619 62.6229 45.6153 61.7695 46.6667 61.7695C47.7181 61.7695 48.5714 62.6229 48.5714 63.6743ZM58.0953 63.6743C58.0953 64.7257 57.2419 65.579 56.1905 65.579C55.1391 65.579 54.2857 64.7257 54.2857 63.6743C54.2857 62.6229 55.1391 61.7695 56.1905 61.7695C57.2419 61.7695 58.0953 62.6229 58.0953 63.6743ZM67.6191 63.6743C67.6191 64.7257 66.7657 65.579 65.7143 65.579C64.6629 65.579 63.8095 64.7257 63.8095 63.6743C63.8095 62.6229 64.6629 61.7695 65.7143 61.7695C66.7657 61.7695 67.6191 62.6229 67.6191 63.6743ZM72.381 29.5238V33.3333V35.2381V44.7619V46.6667V50.4762V52.381V56.1905H30.4762V52.381V50.4762V40.9524V39.0476V35.2381V33.3333V29.5238H72.381ZM27.6191 1.90476C28.6705 1.90476 29.5238 2.7581 29.5238 3.80952C29.5238 4.86095 28.6705 5.71429 27.6191 5.71429C26.5676 5.71429 25.7143 4.86095 25.7143 3.80952C25.7143 2.7581 26.5676 1.90476 27.6191 1.90476Z" fill="#374BB8"/>
<path d="M99.0476 10.4762H78.0952V12.381H99.0476C100.097 12.381 100.952 13.2362 100.952 14.2857V75.2381H1.90472V14.2857C1.90472 13.2362 2.75995 12.381 3.80948 12.381H24.7619V10.4762H3.80948C1.71424 10.4762 -4.57764e-05 12.1905 -4.57764e-05 14.2857V75.2381V75.7867V80.9524C-4.57764e-05 83.0476 1.71424 84.7619 3.80948 84.7619H39.4552L36.7333 94.2857H30.4761C28.3733 94.2857 26.6666 95.9924 26.6666 98.0952V100H76.1904V98.0952C76.1904 95.9924 74.4838 94.2857 72.3809 94.2857H66.1219L63.4 84.7619H99.0476C101.143 84.7619 102.857 83.0476 102.857 80.9524V76.8095V75.2381V14.2857C102.857 12.1905 101.143 10.4762 99.0476 10.4762ZM66.6666 96.1905H72.3809C73.4304 96.1905 74.2857 97.0457 74.2857 98.0952H28.5714C28.5714 97.0457 29.4266 96.1905 30.4761 96.1905H36.1904H66.6666ZM64.1409 94.2857H38.7161L41.438 84.7619H61.4209L64.1409 94.2857ZM100.952 80.9524C100.952 82.0019 100.097 82.8571 99.0476 82.8571H62.8571H40H3.80948C2.75995 82.8571 1.90472 82.0019 1.90472 80.9524V77.1429H100.952V80.9524Z" fill="#374BB8"/>
<path d="M30.4761 10.4762V12.381H34.7371L34.2856 12.0267V10.4762H30.4761Z" fill="#374BB8"/>
<path d="M58.8513 12.381L61.2837 10.4762H41.5732L44.0056 12.381H58.8513Z" fill="#374BB8"/>
<path d="M72.3808 10.4762H68.5713V12.0267L68.1199 12.381H72.3808V10.4762Z" fill="#374BB8"/>
<path d="M53.9883 16.1905L56.4207 14.2858H46.4359L48.8683 16.1905H53.9883Z" fill="#374BB8"/>
<path d="M3.80951 14.2858V71.4286H99.0476V14.2858H78.0952V15.6591L77.4305 16.1905H97.1428V69.5239H5.71427V16.1905H25.4267L24.7619 15.6591V14.2858H3.80951Z" fill="#374BB8"/>
<path d="M39.6016 16.1905L37.1692 14.2858H32.1921L34.573 16.1905H39.6016Z" fill="#374BB8"/>
<path d="M63.2551 16.1905H68.2837L70.6647 14.2858H65.6875L63.2551 16.1905Z" fill="#374BB8"/>
</svg>
