<svg width="48" height="45" viewBox="0 0 48 45" fill="none" xmlns="http://www.w3.org/2000/svg">
<g clip-path="url(#clip0_722_1316)">
<path d="M12.886 33.6982H7.29498V39.2792M6.22998 30.4722C2.95298 23.2962 4.34998 14.5832 10.264 8.67817C17.876 1.07817 30.294 1.12217 37.905 8.72117L40.423 11.2342" stroke="#374BB8" stroke-width="1.5" stroke-linecap="round"/>
<path d="M41.877 14.625C45.154 21.801 43.759 30.514 37.844 36.419C30.232 44.019 17.814 43.975 10.203 36.376L7.68396 33.863M35.249 11.372H40.84V5.79102" stroke="#374BB8" stroke-width="1.5" stroke-linecap="round"/>
<path d="M36.9811 15.092C38.2511 17.282 38.9761 19.822 38.9761 22.534C38.9761 30.754 32.3021 37.418 24.0671 37.418C20.9571 37.418 18.0691 36.468 15.6801 34.841M11.1541 29.978C9.88406 27.788 9.15906 25.247 9.15906 22.535C9.15906 14.315 15.8331 7.65198 24.0681 7.65198C27.1781 7.65198 30.0651 8.60198 32.4551 10.228" stroke="#374BB8" stroke-width="1.5" stroke-linecap="round"/>
<path d="M19.409 18.8139L15.681 22.5349L19.409 26.2559M28.726 18.8139L32.454 22.5349L28.726 26.2559M25.931 16.0229L22.204 29.047" stroke="#374BB8" stroke-width="1.5" stroke-linecap="round"/>
</g>
<defs>
<clipPath id="clip0_722_1316">
<rect width="41" height="41" fill="white" transform="translate(3.5 2)"/>
</clipPath>
</defs>
</svg>
