<svg width="136" height="46" viewBox="0 0 136 46" fill="none" xmlns="http://www.w3.org/2000/svg">
<g clip-path="url(#clip0_739_1744)">
<rect width="135.17" height="45" transform="translate(0.629883 0.676392)" fill="#0077B5"/>
<rect width="90.17" height="45" transform="translate(45.6299 0.676392)" fill="url(#paint0_linear_739_1744)"/>
<path d="M66.8662 29.1764H60.6113V18.6735H62.9771V27.2574H66.8662V29.1764ZM69.2319 20.4899C68.8413 20.4899 68.5215 20.3751 68.2725 20.1456C68.0234 19.9113 67.8989 19.6256 67.8989 19.2887C67.8989 18.942 68.0234 18.6588 68.2725 18.4391C68.5215 18.2194 68.8413 18.1095 69.2319 18.1095C69.6274 18.1095 69.9473 18.2194 70.1914 18.4391C70.4404 18.6588 70.5649 18.942 70.5649 19.2887C70.5649 19.6403 70.4404 19.9283 70.1914 20.153C69.9473 20.3776 69.6274 20.4899 69.2319 20.4899ZM70.3745 29.1764H68.0601V21.6764H70.3745V29.1764ZM79.5664 29.1764H77.2593V25.0089C77.2593 23.8468 76.8442 23.2657 76.0142 23.2657C75.6138 23.2657 75.2842 23.4196 75.0254 23.7272C74.7666 24.0348 74.6372 24.4254 74.6372 24.899V29.1764H72.3228V21.6764H74.6372V22.8629H74.6665C75.2183 21.9498 76.0215 21.4933 77.0762 21.4933C78.7363 21.4933 79.5664 22.5236 79.5664 24.5841V29.1764ZM88.9194 29.1764H86.1436L83.7485 25.4557H83.7192V29.1764H81.4048V18.0729H83.7192V25.1407H83.7485L85.9824 21.6764H88.729L86.041 25.1993L88.9194 29.1764ZM96.3169 26.0856H91.4243C91.5024 27.1744 92.1885 27.7189 93.4824 27.7189C94.3076 27.7189 95.0327 27.5236 95.6577 27.1329V28.8029C94.9644 29.174 94.0635 29.3595 92.9551 29.3595C91.7441 29.3595 90.8042 29.025 90.1353 28.3561C89.4663 27.6823 89.1318 26.7448 89.1318 25.5436C89.1318 24.2985 89.4932 23.3121 90.2158 22.5846C90.9385 21.8571 91.8271 21.4933 92.8818 21.4933C93.9756 21.4933 94.8203 21.818 95.416 22.4674C96.0166 23.1168 96.3169 23.9982 96.3169 25.1115V26.0856ZM94.1709 24.6647C94.1709 23.5905 93.7363 23.0533 92.8672 23.0533C92.4961 23.0533 92.1738 23.2072 91.9004 23.5148C91.6318 23.8224 91.4683 24.2057 91.4097 24.6647H94.1709ZM105.033 29.1764H102.718V28.1437H102.689C102.162 28.9542 101.388 29.3595 100.367 29.3595C99.4297 29.3595 98.6753 29.0299 98.104 28.3707C97.5327 27.7067 97.2471 26.7814 97.2471 25.5948C97.2471 24.3546 97.562 23.361 98.1919 22.6139C98.8218 21.8668 99.647 21.4933 100.667 21.4933C101.634 21.4933 102.308 21.84 102.689 22.5333H102.718V18.0729H105.033V29.1764ZM102.762 25.5289V24.965C102.762 24.4767 102.621 24.0714 102.337 23.7491C102.054 23.4269 101.686 23.2657 101.231 23.2657C100.719 23.2657 100.318 23.4684 100.03 23.8737C99.7422 24.274 99.5981 24.8258 99.5981 25.5289C99.5981 26.1881 99.7373 26.6959 100.016 27.0524C100.294 27.4088 100.68 27.587 101.173 27.587C101.642 27.587 102.022 27.399 102.315 27.0231C102.613 26.6471 102.762 26.149 102.762 25.5289ZM109.574 29.1764H107.208V18.6735H109.574V29.1764ZM118.985 29.1764H116.678V25.0089C116.678 23.8468 116.263 23.2657 115.433 23.2657C115.033 23.2657 114.703 23.4196 114.444 23.7272C114.186 24.0348 114.056 24.4254 114.056 24.899V29.1764H111.742V21.6764H114.056V22.8629H114.085C114.637 21.9498 115.44 21.4933 116.495 21.4933C118.155 21.4933 118.985 22.5236 118.985 24.5841V29.1764Z" fill="white"/>
<path d="M29.5649 15.8639C30.1294 15.8639 30.6274 16.3619 30.6274 16.9596V29.6764C30.6274 30.274 30.1294 30.7389 29.5649 30.7389H16.7817C16.2173 30.7389 15.7524 30.274 15.7524 29.6764V16.9596C15.7524 16.3619 16.2173 15.8639 16.7817 15.8639H29.5649ZM20.2349 28.6139V21.5416H18.0435V28.6139H20.2349ZM19.1392 20.5455C19.8364 20.5455 20.4009 19.9811 20.4009 19.2838C20.4009 18.5865 19.8364 17.9889 19.1392 17.9889C18.4087 17.9889 17.8442 18.5865 17.8442 19.2838C17.8442 19.9811 18.4087 20.5455 19.1392 20.5455ZM28.5024 28.6139V24.7291C28.5024 22.8365 28.0708 21.3424 25.8462 21.3424C24.7837 21.3424 24.0532 21.9401 23.7544 22.5045H23.7212V21.5416H21.6294V28.6139H23.8208V25.1276C23.8208 24.1979 23.9868 23.3014 25.1489 23.3014C26.2778 23.3014 26.2778 24.3639 26.2778 25.1608V28.6139H28.5024Z" fill="white"/>
</g>
<defs>
<linearGradient id="paint0_linear_739_1744" x1="0" y1="22.5" x2="90.17" y2="22.5" gradientUnits="userSpaceOnUse">
<stop stop-opacity="0.12"/>
<stop offset="1" stop-opacity="0"/>
</linearGradient>
<clipPath id="clip0_739_1744">
<rect width="135.17" height="45" fill="white" transform="translate(0.629883 0.676392)"/>
</clipPath>
</defs>
</svg>
