<svg width="48" height="46" viewBox="0 0 48 46" fill="none" xmlns="http://www.w3.org/2000/svg">
<g clip-path="url(#clip0_722_1383)">
<path d="M22.662 40.851H25.275M17.436 26.938V34.764M21.791 20.851V34.764M26.146 29.547V34.764M30.502 24.33V34.764M39.212 29.547V34.764M43.567 22.59V34.764M4.37097 29.547V34.764M8.72597 20.851V34.764M33.115 3.45996H14.823C13.862 3.45996 13.081 4.23996 13.081 5.19996V41.72C13.081 42.68 13.861 43.46 14.823 43.46H33.115C34.076 43.46 34.857 42.68 34.857 41.72V5.19996C34.857 4.23996 34.077 3.45996 33.115 3.45996Z" stroke="#374BB8" stroke-width="1.5" stroke-linecap="round"/>
</g>
<defs>
<clipPath id="clip0_722_1383">
<rect width="41" height="42" fill="white" transform="translate(3.5 2.45996)"/>
</clipPath>
</defs>
</svg>
