<svg width="16" height="16" viewBox="0 0 16 16" fill="none" xmlns="http://www.w3.org/2000/svg">
<path d="M8.06 4.60645C10.1518 4.60645 11.8784 6.33301 11.8784 8.4248C11.8784 10.5498 10.1518 12.2432 8.06 12.2432C5.935 12.2432 4.24164 10.5498 4.24164 8.4248C4.24164 6.33301 5.935 4.60645 8.06 4.60645ZM8.06 10.915C9.42133 10.915 10.517 9.81934 10.517 8.4248C10.517 7.06348 9.42133 5.96777 8.06 5.96777C6.66547 5.96777 5.56976 7.06348 5.56976 8.4248C5.56976 9.81934 6.69867 10.915 8.06 10.915ZM12.9077 4.47363C12.9077 4.97168 12.5092 5.37012 12.0112 5.37012C11.5131 5.37012 11.1147 4.97168 11.1147 4.47363C11.1147 3.97559 11.5131 3.57715 12.0112 3.57715C12.5092 3.57715 12.9077 3.97559 12.9077 4.47363ZM15.4311 5.37012C15.4975 6.59863 15.4975 10.2842 15.4311 11.5127C15.3647 12.708 15.0991 13.7373 14.2358 14.6338C13.3725 15.4971 12.31 15.7627 11.1147 15.8291C9.88617 15.8955 6.20062 15.8955 4.97211 15.8291C3.77679 15.7627 2.7475 15.4971 1.85101 14.6338C0.987732 13.7373 0.722107 12.708 0.655701 11.5127C0.589294 10.2842 0.589294 6.59863 0.655701 5.37012C0.722107 4.1748 0.987732 3.1123 1.85101 2.24902C2.7475 1.38574 3.77679 1.12012 4.97211 1.05371C6.20062 0.987305 9.88617 0.987305 11.1147 1.05371C12.31 1.12012 13.3725 1.38574 14.2358 2.24902C15.0991 3.1123 15.3647 4.1748 15.4311 5.37012ZM13.8373 12.8076C14.2358 11.8447 14.1362 9.52051 14.1362 8.4248C14.1362 7.3623 14.2358 5.03809 13.8373 4.04199C13.5717 3.41113 13.0737 2.87988 12.4428 2.64746C11.4467 2.24902 9.1225 2.34863 8.06 2.34863C6.96429 2.34863 4.64008 2.24902 3.67719 2.64746C3.01312 2.91309 2.51508 3.41113 2.24945 4.04199C1.85101 5.03809 1.95062 7.3623 1.95062 8.4248C1.95062 9.52051 1.85101 11.8447 2.24945 12.8076C2.51508 13.4717 3.01312 13.9697 3.67719 14.2354C4.64008 14.6338 6.96429 14.5342 8.06 14.5342C9.1225 14.5342 11.4467 14.6338 12.4428 14.2354C13.0737 13.9697 13.6049 13.4717 13.8373 12.8076Z" fill="white"/>
</svg>
