<svg width="18" height="17" viewBox="0 0 18 17" fill="none" xmlns="http://www.w3.org/2000/svg">
<path d="M17.2844 8.4248C17.2844 12.9736 13.5988 16.6592 9.04999 16.6592C8.18671 16.6592 7.35663 16.5596 6.59296 16.2939C6.92499 15.7627 7.42303 14.8662 7.62225 14.1357C7.72186 13.7705 8.1203 12.1768 8.1203 12.1768C8.38593 12.708 9.1828 13.1396 10.0129 13.1396C12.5031 13.1396 14.2961 10.8486 14.2961 8.02637C14.2961 5.30371 12.0715 3.24512 9.216 3.24512C5.66327 3.24512 3.77069 5.63574 3.77069 8.22559C3.77069 9.4541 4.40155 10.9482 5.43085 11.4463C5.59686 11.5127 5.69647 11.4795 5.72968 11.3135C5.72968 11.2139 5.89569 10.6494 5.9621 10.3838C5.9621 10.3174 5.9621 10.2178 5.89569 10.1514C5.56366 9.75293 5.29803 8.98926 5.29803 8.25879C5.29803 6.46582 6.65936 4.70605 9.01678 4.70605C11.009 4.70605 12.4367 6.06738 12.4367 8.05957C12.4367 10.2842 11.3078 11.8115 9.84686 11.8115C9.04999 11.8115 8.45233 11.1475 8.61835 10.3506C8.85077 9.35449 9.31561 8.29199 9.31561 7.59473C9.31561 6.96387 8.98358 6.43262 8.28632 6.43262C7.45624 6.43262 6.79218 7.2959 6.79218 8.4248C6.79218 9.15527 7.0246 9.65332 7.0246 9.65332C7.0246 9.65332 6.22772 13.1064 6.06171 13.7373C5.89569 14.4678 5.9621 15.4639 6.0285 16.0947C2.97382 14.8994 0.815613 11.9443 0.815613 8.4248C0.815613 3.87598 4.50116 0.19043 9.04999 0.19043C13.5988 0.19043 17.2844 3.87598 17.2844 8.4248Z" fill="white"/>
</svg>
