<svg width="20" height="13" viewBox="0 0 20 13" fill="none" xmlns="http://www.w3.org/2000/svg">
<path d="M18.696 2.0752C19.0945 3.46973 19.0945 6.45801 19.0945 6.45801C19.0945 6.45801 19.0945 9.41309 18.696 10.8408C18.4968 11.6377 17.866 12.2354 17.1023 12.4346C15.6746 12.7998 10.03 12.7998 10.03 12.7998C10.03 12.7998 4.35229 12.7998 2.92456 12.4346C2.16089 12.2354 1.53003 11.6377 1.33081 10.8408C0.932373 9.41309 0.932373 6.45801 0.932373 6.45801C0.932373 6.45801 0.932373 3.46973 1.33081 2.0752C1.53003 1.27832 2.16089 0.647461 2.92456 0.448242C4.35229 0.0498047 10.03 0.0498047 10.03 0.0498047C10.03 0.0498047 15.6746 0.0498047 17.1023 0.448242C17.866 0.647461 18.4968 1.27832 18.696 2.0752ZM8.17065 9.14746L12.8855 6.45801L8.17065 3.76855V9.14746Z" fill="white"/>
</svg>
