<svg width="18" height="15" viewBox="0 0 18 15" fill="none" xmlns="http://www.w3.org/2000/svg">
<path d="M15.5502 3.97168C15.5502 4.1377 15.5502 4.27051 15.5502 4.43652C15.5502 9.05176 12.0639 14.3311 5.6557 14.3311C3.66351 14.3311 1.83734 13.7666 0.309998 12.7705C0.575623 12.8037 0.841248 12.8369 1.14008 12.8369C2.76703 12.8369 4.26117 12.2725 5.45648 11.3428C3.92914 11.3096 2.63422 10.3135 2.20258 8.91895C2.435 8.95215 2.63422 8.98535 2.86664 8.98535C3.16547 8.98535 3.4975 8.91895 3.76312 8.85254C2.16937 8.52051 0.97406 7.12598 0.97406 5.43262V5.39941C1.4389 5.66504 2.00336 5.79785 2.56781 5.83105C1.60492 5.2002 1.00726 4.1377 1.00726 2.94238C1.00726 2.27832 1.17328 1.68066 1.47211 1.18262C3.19867 3.27441 5.78851 4.66895 8.67719 4.83496C8.61078 4.56934 8.57758 4.30371 8.57758 4.03809C8.57758 2.1123 10.1381 0.551758 12.0639 0.551758C13.06 0.551758 13.9565 0.950195 14.6205 1.64746C15.3842 1.48145 16.1479 1.18262 16.812 0.78418C16.5463 1.61426 16.0151 2.27832 15.2846 2.70996C15.9819 2.64355 16.6791 2.44434 17.2768 2.17871C16.812 2.87598 16.2143 3.47363 15.5502 3.97168Z" fill="white"/>
</svg>
