<svg width="15" height="16" viewBox="0 0 15 16" fill="none" xmlns="http://www.w3.org/2000/svg">
<path d="M13.845 0.987305C14.4094 0.987305 14.9075 1.48535 14.9075 2.08301V14.7998C14.9075 15.3975 14.4094 15.8623 13.845 15.8623H1.06177C0.497314 15.8623 0.0324707 15.3975 0.0324707 14.7998V2.08301C0.0324707 1.48535 0.497314 0.987305 1.06177 0.987305H13.845ZM4.51489 13.7373V6.66504H2.32349V13.7373H4.51489ZM3.41919 5.66895C4.11646 5.66895 4.68091 5.10449 4.68091 4.40723C4.68091 3.70996 4.11646 3.1123 3.41919 3.1123C2.68872 3.1123 2.12427 3.70996 2.12427 4.40723C2.12427 5.10449 2.68872 5.66895 3.41919 5.66895ZM12.7825 13.7373V9.85254C12.7825 7.95996 12.3508 6.46582 10.1262 6.46582C9.06372 6.46582 8.33325 7.06348 8.03442 7.62793H8.00122V6.66504H5.90942V13.7373H8.10083V10.251C8.10083 9.32129 8.26685 8.4248 9.42896 8.4248C10.5579 8.4248 10.5579 9.4873 10.5579 10.2842V13.7373H12.7825Z" fill="white"/>
</svg>
