<svg width="16" height="16" viewBox="0 0 16 16" fill="none" xmlns="http://www.w3.org/2000/svg">
<path d="M0.8125 0.987305H15.6875V15.8623H0.8125V0.987305ZM13.1641 4.54004V4.37402H10.4082L8.41602 9.25488L6.19141 4.34082H3.30273V4.54004L4.23242 5.63574C4.29883 5.73535 4.36523 5.86816 4.33203 5.96777V10.3838C4.36523 10.5498 4.33203 10.7158 4.19922 10.8154L3.16992 12.1104V12.2764H6.1582V12.1104L5.0957 10.8154C4.99609 10.7158 4.92969 10.5498 4.96289 10.3838V6.56543L7.55273 12.2764H7.85156L10.1094 6.56543V11.1143C10.1094 11.2471 10.1094 11.2471 10.043 11.3467L9.21289 12.1104V12.2764H13.1309V12.1104L12.3672 11.3467C12.3008 11.3135 12.2676 11.2139 12.2676 11.1475V5.50293C12.2676 5.43652 12.3008 5.33691 12.3672 5.30371L13.1641 4.54004Z" fill="white"/>
</svg>
