<svg width="122" height="46" viewBox="0 0 122 46" fill="none" xmlns="http://www.w3.org/2000/svg">
<g clip-path="url(#clip0_739_1740)">
<rect width="121.56" height="45" transform="translate(0.0595703 0.676392)" fill="#1DA1F2"/>
<rect width="76.56" height="45" transform="translate(45.0596 0.676392)" fill="url(#paint0_linear_739_1740)"/>
<path d="M67.6992 21.1715H64.9033V29.1764H62.6885V21.1715H59.9062V19.3737H67.6992V21.1715ZM78.3154 22.1764L76.2988 29.1764H74.0293L72.9971 25.0748C72.9287 24.8014 72.89 24.5029 72.8809 24.1793H72.8398C72.8079 24.5348 72.7624 24.8242 72.7031 25.0475L71.5957 29.1764H69.3535L67.3779 22.1764H69.5791L70.543 26.7428C70.5885 26.957 70.6227 27.2168 70.6455 27.5221H70.6865C70.7093 27.2031 70.7503 26.9342 70.8096 26.7155L72.0127 22.1764H74.0703L75.1504 26.7428C75.1777 26.8567 75.2096 27.1211 75.2461 27.5358H75.2939C75.3167 27.2714 75.3532 27.0071 75.4033 26.7428L76.3125 22.1764H78.3154ZM80.4414 21.069C80.0768 21.069 79.7783 20.9619 79.5459 20.7477C79.3135 20.5289 79.1973 20.2623 79.1973 19.9479C79.1973 19.6243 79.3135 19.36 79.5459 19.1549C79.7783 18.9498 80.0768 18.8473 80.4414 18.8473C80.8105 18.8473 81.109 18.9498 81.3369 19.1549C81.5693 19.36 81.6855 19.6243 81.6855 19.9479C81.6855 20.276 81.5693 20.5449 81.3369 20.7545C81.109 20.9642 80.8105 21.069 80.4414 21.069ZM81.5078 29.1764H79.3477V22.1764H81.5078V29.1764ZM87.5576 29.0944C87.2386 29.263 86.7578 29.3473 86.1152 29.3473C84.5931 29.3473 83.832 28.5566 83.832 26.9752V23.7692H82.6973V22.1764H83.832V20.6656L85.9854 20.0504V22.1764H87.5576V23.7692H85.9854V26.5992C85.9854 27.3284 86.2747 27.693 86.8535 27.693C87.0814 27.693 87.3161 27.6269 87.5576 27.4948V29.0944ZM93.0127 29.0944C92.6937 29.263 92.2129 29.3473 91.5703 29.3473C90.0482 29.3473 89.2871 28.5566 89.2871 26.9752V23.7692H88.1523V22.1764H89.2871V20.6656L91.4404 20.0504V22.1764H93.0127V23.7692H91.4404V26.5992C91.4404 27.3284 91.7298 27.693 92.3086 27.693C92.5365 27.693 92.7712 27.6269 93.0127 27.4948V29.0944ZM100.471 26.2916H95.9043C95.9772 27.3079 96.6175 27.816 97.8252 27.816C98.5954 27.816 99.2721 27.6337 99.8555 27.2692V28.8278C99.2083 29.1741 98.3675 29.3473 97.333 29.3473C96.2028 29.3473 95.3255 29.0351 94.7012 28.4108C94.0768 27.7819 93.7646 26.9069 93.7646 25.7858C93.7646 24.6237 94.1019 23.7031 94.7764 23.024C95.4508 22.345 96.2803 22.0055 97.2646 22.0055C98.2855 22.0055 99.0739 22.3086 99.6299 22.9147C100.19 23.5208 100.471 24.3434 100.471 25.3824V26.2916ZM98.4678 24.9655C98.4678 23.9628 98.0622 23.4615 97.251 23.4615C96.9046 23.4615 96.6038 23.6051 96.3486 23.8922C96.098 24.1793 95.9453 24.5371 95.8906 24.9655H98.4678ZM106.322 24.1246C106.062 23.9834 105.759 23.9127 105.413 23.9127C104.944 23.9127 104.577 24.0859 104.312 24.4323C104.048 24.774 103.916 25.2412 103.916 25.8336V29.1764H101.756V22.1764H103.916V23.4752H103.943C104.285 22.5273 104.9 22.0533 105.789 22.0533C106.017 22.0533 106.195 22.0807 106.322 22.1354V24.1246Z" fill="white"/>
<path d="M29.2998 19.8483C29.2998 20.0143 29.2998 20.1471 29.2998 20.3131C29.2998 24.9283 25.8135 30.2076 19.4053 30.2076C17.4131 30.2076 15.5869 29.6432 14.0596 28.6471C14.3252 28.6803 14.5908 28.7135 14.8896 28.7135C16.5166 28.7135 18.0107 28.149 19.2061 27.2194C17.6787 27.1862 16.3838 26.1901 15.9521 24.7955C16.1846 24.8287 16.3838 24.8619 16.6162 24.8619C16.915 24.8619 17.2471 24.7955 17.5127 24.7291C15.9189 24.3971 14.7236 23.0026 14.7236 21.3092V21.276C15.1885 21.5416 15.7529 21.6744 16.3174 21.7076C15.3545 21.0768 14.7568 20.0143 14.7568 18.819C14.7568 18.1549 14.9229 17.5573 15.2217 17.0592C16.9482 19.151 19.5381 20.5455 22.4268 20.7115C22.3604 20.4459 22.3271 20.1803 22.3271 19.9147C22.3271 17.9889 23.8877 16.4283 25.8135 16.4283C26.8096 16.4283 27.7061 16.8268 28.3701 17.524C29.1338 17.358 29.8975 17.0592 30.5615 16.6608C30.2959 17.4908 29.7646 18.1549 29.0342 18.5865C29.7314 18.5201 30.4287 18.3209 31.0264 18.0553C30.5615 18.7526 29.9639 19.3502 29.2998 19.8483Z" fill="white"/>
</g>
<defs>
<linearGradient id="paint0_linear_739_1740" x1="0" y1="22.5" x2="76.56" y2="22.5" gradientUnits="userSpaceOnUse">
<stop stop-opacity="0.12"/>
<stop offset="1" stop-opacity="0"/>
</linearGradient>
<clipPath id="clip0_739_1740">
<rect width="121.56" height="45" fill="white" transform="translate(0.0595703 0.676392)"/>
</clipPath>
</defs>
</svg>
