<svg width="149" height="46" viewBox="0 0 149 46" fill="none" xmlns="http://www.w3.org/2000/svg">
<g clip-path="url(#clip0_739_1748)">
<rect width="147.67" height="45" transform="translate(0.799805 0.676392)" fill="#25D366"/>
<rect width="102.67" height="45" transform="translate(45.7998 0.676392)" fill="url(#paint0_linear_739_1748)"/>
<path d="M74.3491 18.6735L71.5732 29.1764H68.9512L67.208 22.4381C67.1152 22.0865 67.0591 21.6935 67.0396 21.2589H67.0103C66.9663 21.7374 66.9028 22.1305 66.8198 22.4381L65.0327 29.1764H62.3008L59.5396 18.6735H62.125L63.6045 25.6681C63.668 25.9659 63.7144 26.3663 63.7437 26.8693H63.7876C63.8071 26.4933 63.8779 26.0831 64 25.6388L65.9043 18.6735H68.4385L70.1597 25.7267C70.2231 25.9855 70.2793 26.3615 70.3281 26.8546H70.3574C70.377 26.4689 70.4282 26.0782 70.5112 25.6827L71.9614 18.6735H74.3491ZM82.6548 29.1764H80.3477V24.9137C80.3477 23.8151 79.9473 23.2657 79.1465 23.2657C78.7363 23.2657 78.4043 23.4196 78.1504 23.7272C77.8965 24.0348 77.7695 24.4254 77.7695 24.899V29.1764H75.4551V18.0729H77.7695V22.7897H77.7988C78.3652 21.9254 79.1343 21.4933 80.106 21.4933C81.8052 21.4933 82.6548 22.5187 82.6548 24.5695V29.1764ZM90.7334 29.1764H88.5435V28.0997H88.5142C88.0112 28.9396 87.2666 29.3595 86.2803 29.3595C85.5527 29.3595 84.979 29.1544 84.5591 28.7443C84.144 28.3292 83.9365 27.7775 83.9365 27.089C83.9365 25.6339 84.7983 24.7941 86.522 24.5695L88.5581 24.2985C88.5581 23.4781 88.1138 23.068 87.2251 23.068C86.3315 23.068 85.4819 23.3341 84.6763 23.8663V22.1232C84.9985 21.9572 85.438 21.8107 85.9946 21.6837C86.5562 21.5568 87.0664 21.4933 87.5254 21.4933C89.6641 21.4933 90.7334 22.5602 90.7334 24.694V29.1764ZM88.5581 26.1295V25.6241L87.1958 25.7999C86.4438 25.8976 86.0679 26.2369 86.0679 26.818C86.0679 27.0817 86.1582 27.299 86.3389 27.4698C86.5244 27.6359 86.7734 27.7189 87.0859 27.7189C87.5205 27.7189 87.8745 27.5699 88.1479 27.2721C88.4214 26.9694 88.5581 26.5885 88.5581 26.1295ZM97.0981 29.0885C96.7563 29.2692 96.2412 29.3595 95.5527 29.3595C93.9219 29.3595 93.1064 28.5123 93.1064 26.818V23.3829H91.8906V21.6764H93.1064V20.0577L95.4136 19.3986V21.6764H97.0981V23.3829H95.4136V26.4152C95.4136 27.1964 95.7236 27.587 96.3438 27.587C96.5879 27.587 96.8394 27.5162 97.0981 27.3746V29.0885ZM97.9185 28.9786V27.1036C98.2993 27.3331 98.6777 27.504 99.0537 27.6163C99.4346 27.7286 99.7935 27.7848 100.13 27.7848C100.541 27.7848 100.863 27.7286 101.097 27.6163C101.336 27.504 101.456 27.3331 101.456 27.1036C101.456 26.9572 101.402 26.8351 101.295 26.7374C101.188 26.6398 101.048 26.5543 100.877 26.4811C100.711 26.4078 100.528 26.3419 100.328 26.2833C100.128 26.2247 99.9351 26.1588 99.7495 26.0856C99.4517 25.9733 99.188 25.8536 98.9585 25.7267C98.7339 25.5948 98.5435 25.4435 98.3872 25.2726C98.2358 25.1017 98.1187 24.9039 98.0356 24.6793C97.9575 24.4547 97.9185 24.1886 97.9185 23.881C97.9185 23.4611 98.0088 23.0997 98.1895 22.797C98.375 22.4943 98.6191 22.2477 98.9219 22.0573C99.2295 21.8619 99.5786 21.7203 99.9692 21.6324C100.365 21.5397 100.775 21.4933 101.2 21.4933C101.532 21.4933 101.869 21.5201 102.21 21.5739C102.552 21.6227 102.889 21.6959 103.221 21.7936V23.5807C102.928 23.4098 102.613 23.2828 102.276 23.1998C101.944 23.1119 101.617 23.068 101.295 23.068C101.144 23.068 101 23.0826 100.863 23.1119C100.731 23.1364 100.614 23.1754 100.511 23.2291C100.409 23.278 100.328 23.3439 100.27 23.4269C100.211 23.505 100.182 23.5953 100.182 23.6979C100.182 23.8346 100.226 23.9518 100.313 24.0494C100.401 24.1471 100.516 24.2325 100.658 24.3058C100.799 24.3741 100.956 24.4376 101.126 24.4962C101.302 24.5499 101.476 24.6061 101.646 24.6647C101.954 24.7721 102.232 24.8893 102.481 25.0162C102.73 25.1432 102.943 25.2921 103.119 25.463C103.299 25.6339 103.436 25.8341 103.529 26.0636C103.626 26.2931 103.675 26.5665 103.675 26.8839C103.675 27.3282 103.578 27.7091 103.382 28.0265C103.192 28.339 102.936 28.5953 102.613 28.7955C102.296 28.9908 101.927 29.1324 101.507 29.2203C101.092 29.3131 100.66 29.3595 100.211 29.3595C99.3857 29.3595 98.6216 29.2325 97.9185 28.9786ZM114.479 29.1764H111.9L111.153 26.84H107.418L106.678 29.1764H104.115L107.938 18.6735H110.743L114.479 29.1764ZM110.611 25.0236L109.483 21.4933C109.4 21.2296 109.342 20.9147 109.308 20.5485H109.249C109.225 20.8561 109.164 21.1613 109.066 21.464L107.923 25.0236H110.611ZM117.906 28.3048H117.877V32.6261H115.562V21.6764H117.877V22.8043H117.906C118.478 21.9303 119.281 21.4933 120.316 21.4933C121.288 21.4933 122.037 21.8278 122.564 22.4967C123.097 23.1608 123.363 24.0665 123.363 25.214C123.363 26.464 123.053 27.4674 122.433 28.2242C121.817 28.9811 120.997 29.3595 119.972 29.3595C119.068 29.3595 118.38 29.0079 117.906 28.3048ZM117.84 25.2286V25.8292C117.84 26.3468 117.977 26.7692 118.25 27.0963C118.524 27.4235 118.883 27.587 119.327 27.587C119.854 27.587 120.262 27.3844 120.55 26.9791C120.843 26.569 120.99 25.9904 120.99 25.2433C120.99 23.9249 120.477 23.2657 119.452 23.2657C118.978 23.2657 118.59 23.4464 118.287 23.8077C117.989 24.1642 117.84 24.6378 117.84 25.2286ZM127.208 28.3048H127.179V32.6261H124.864V21.6764H127.179V22.8043H127.208C127.779 21.9303 128.583 21.4933 129.618 21.4933C130.589 21.4933 131.339 21.8278 131.866 22.4967C132.398 23.1608 132.665 24.0665 132.665 25.214C132.665 26.464 132.354 27.4674 131.734 28.2242C131.119 28.9811 130.299 29.3595 129.273 29.3595C128.37 29.3595 127.682 29.0079 127.208 28.3048ZM127.142 25.2286V25.8292C127.142 26.3468 127.279 26.7692 127.552 27.0963C127.826 27.4235 128.185 27.587 128.629 27.587C129.156 27.587 129.564 27.3844 129.852 26.9791C130.145 26.569 130.292 25.9904 130.292 25.2433C130.292 23.9249 129.779 23.2657 128.753 23.2657C128.28 23.2657 127.892 23.4464 127.589 23.8077C127.291 24.1642 127.142 24.6378 127.142 25.2286Z" fill="white"/>
<path d="M28.5396 18.0553C29.9341 19.4498 30.7974 21.276 30.7974 23.2682C30.7974 27.319 27.4106 30.6393 23.3267 30.6393C22.0981 30.6393 20.9028 30.3073 19.8071 29.7428L15.9224 30.7389L16.9517 26.9205C16.3208 25.8248 15.9556 24.5631 15.9556 23.235C15.9556 19.1842 19.2759 15.8639 23.3267 15.8639C25.3188 15.8639 27.1782 16.6608 28.5396 18.0553ZM23.3267 29.3776C26.7134 29.3776 29.5356 26.6217 29.5356 23.2682C29.5356 21.608 28.8384 20.0807 27.6763 18.9186C26.5142 17.7565 24.9868 17.1256 23.3599 17.1256C19.9731 17.1256 17.2173 19.8815 17.2173 23.235C17.2173 24.3971 17.5493 25.526 18.147 26.5221L18.313 26.7545L17.6821 29.0123L20.0063 28.3815L20.2056 28.5143C21.1685 29.0787 22.231 29.3776 23.3267 29.3776ZM26.7134 24.7955C26.8794 24.8951 27.0122 24.9283 27.0454 25.028C27.1118 25.0944 27.1118 25.4596 26.9458 25.8912C26.7798 26.3229 26.0493 26.7213 25.7173 26.7545C25.1196 26.8541 24.6548 26.8209 23.4927 26.2897C21.6333 25.4928 20.438 23.6334 20.3384 23.5338C20.2388 23.401 19.6079 22.5377 19.6079 21.608C19.6079 20.7115 20.0728 20.2799 20.2388 20.0807C20.4048 19.8815 20.604 19.8483 20.7368 19.8483C20.8364 19.8483 20.9692 19.8483 21.0688 19.8483C21.2017 19.8483 21.3345 19.8151 21.5005 20.1803C21.6333 20.5455 22.0317 21.442 22.0649 21.5416C22.0981 21.6412 22.1313 21.7408 22.0649 21.8737C21.7329 22.5709 21.3345 22.5377 21.5337 22.8698C22.2642 24.0983 22.9614 24.5299 24.0571 25.0612C24.2231 25.1608 24.3228 25.1276 24.4556 25.028C24.5552 24.8951 24.9204 24.4635 25.02 24.2975C25.1528 24.0983 25.2856 24.1315 25.4517 24.1979C25.6177 24.2643 26.5142 24.6959 26.7134 24.7955Z" fill="white"/>
</g>
<defs>
<linearGradient id="paint0_linear_739_1748" x1="0" y1="22.5" x2="102.67" y2="22.5" gradientUnits="userSpaceOnUse">
<stop stop-opacity="0.12"/>
<stop offset="1" stop-opacity="0"/>
</linearGradient>
<clipPath id="clip0_739_1748">
<rect width="147.67" height="45" fill="white" transform="translate(0.799805 0.676392)"/>
</clipPath>
</defs>
</svg>
